<?xml version="1.0" encoding="UTF-8" standalone="no"?><svg xmlns="http://www.w3.org/2000/svg" xmlns:xlink="http://www.w3.org/1999/xlink" contentScriptType="application/ecmascript" contentStyleType="text/css" height="937px" preserveAspectRatio="none" style="width:1084px;height:937px;" version="1.1" viewBox="0 0 1084 937" width="1084px" zoomAndPan="magnify"><defs/><g><!--cluster Database--><rect fill="#FFFFFF" height="129" rx="12.5" ry="12.5" style="stroke: #EEEEEE; stroke-width: 1.5;" width="438" x="634" y="31"/><rect fill="#FFFFFF" height="96.7031" rx="12.5" ry="12.5" style="stroke: #FFFFFF; stroke-width: 1.0;" width="432" x="637" y="60.2969"/><line style="stroke: #EEEEEE; stroke-width: 1.5;" x1="634" x2="1072" y1="57.2969" y2="57.2969"/><text fill="#000000" font-family="Helvetica" font-size="14" lengthAdjust="spacingAndGlyphs" textLength="66" x="820" y="47.9951">Database</text><!--cluster UserInput--><rect fill="#FFFFFF" height="143" rx="12.5" ry="12.5" style="stroke: #EEEEEE; stroke-width: 1.5;" width="588" x="22" y="24"/><rect fill="#FFFFFF" height="110.7031" rx="12.5" ry="12.5" style="stroke: #FFFFFF; stroke-width: 1.0;" width="582" x="25" y="53.2969"/><line style="stroke: #EEEEEE; stroke-width: 1.5;" x1="22" x2="610" y1="50.2969" y2="50.2969"/><text fill="#000000" font-family="Helvetica" font-size="14" lengthAdjust="spacingAndGlyphs" textLength="71" x="280.5" y="40.9951">User Input</text><rect fill="#FFFFFF" height="78.2031" rx="12.5" ry="12.5" style="stroke: #EEEEEE; stroke-width: 1.5;" width="195" x="649.5" y="66"/><line style="stroke: #EEEEEE; stroke-width: 1.5;" x1="649.5" x2="844.5" y1="92.2969" y2="92.2969"/><text fill="#000000" font-family="Helvetica" font-size="14" lengthAdjust="spacingAndGlyphs" textLength="48" x="723" y="83.9951">Whisky</text><text fill="#000000" font-family="sans-serif" font-size="12" lengthAdjust="spacingAndGlyphs" textLength="130" x="654.5" y="108.4355">database containing</text><text fill="#000000" font-family="sans-serif" font-size="12" lengthAdjust="spacingAndGlyphs" textLength="151" x="654.5" y="122.4043">whisky flavors and other</text><text fill="#000000" font-family="sans-serif" font-size="12" lengthAdjust="spacingAndGlyphs" textLength="175" x="654.5" y="136.373">columns like name and cost</text><rect fill="#FFFFFF" height="64.2344" rx="12.5" ry="12.5" style="stroke: #EEEEEE; stroke-width: 1.5;" width="177" x="879.5" y="73"/><line style="stroke: #EEEEEE; stroke-width: 1.5;" x1="879.5" x2="1056.5" y1="99.2969" y2="99.2969"/><text fill="#000000" font-family="Helvetica" font-size="14" lengthAdjust="spacingAndGlyphs" textLength="123" x="906.5" y="90.9951">Experience Profile</text><text fill="#000000" font-family="sans-serif" font-size="12" lengthAdjust="spacingAndGlyphs" textLength="148" x="884.5" y="115.4355">typical flavor profiles on</text><text fill="#000000" font-family="sans-serif" font-size="12" lengthAdjust="spacingAndGlyphs" textLength="157" x="884.5" y="129.4043">various experience levels</text><rect fill="#FFFFFF" height="92.1719" rx="12.5" ry="12.5" style="stroke: #EEEEEE; stroke-width: 1.5;" width="145" x="237.5" y="59"/><line style="stroke: #EEEEEE; stroke-width: 1.5;" x1="237.5" x2="382.5" y1="85.2969" y2="85.2969"/><text fill="#000000" font-family="Helvetica" font-size="14" lengthAdjust="spacingAndGlyphs" textLength="125" x="247.5" y="76.9951">User Profile Param</text><text fill="#000000" font-family="sans-serif" font-size="12" lengthAdjust="spacingAndGlyphs" textLength="38" x="242.5" y="101.4355">Mood;</text><text fill="#000000" font-family="sans-serif" font-size="12" lengthAdjust="spacingAndGlyphs" textLength="108" x="242.5" y="115.4043">Experience Level;</text><text fill="#000000" font-family="sans-serif" font-size="12" lengthAdjust="spacingAndGlyphs" textLength="104" x="242.5" y="129.373">Preferred Flavor;</text><text fill="#000000" font-family="sans-serif" font-size="12" lengthAdjust="spacingAndGlyphs" textLength="100" x="242.5" y="143.3418">Favorite Whisky;</text><rect fill="#FFFFFF" height="64.2344" rx="12.5" ry="12.5" style="stroke: #EEEEEE; stroke-width: 1.5;" width="176" x="418" y="73"/><line style="stroke: #EEEEEE; stroke-width: 1.5;" x1="418" x2="594" y1="99.2969" y2="99.2969"/><text fill="#000000" font-family="Helvetica" font-size="14" lengthAdjust="spacingAndGlyphs" textLength="137" x="437.5" y="90.9951">Data Filtering Param</text><text fill="#000000" font-family="sans-serif" font-size="12" lengthAdjust="spacingAndGlyphs" textLength="125" x="423" y="115.4355">Spirit Type; Distillery</text><text fill="#000000" font-family="sans-serif" font-size="12" lengthAdjust="spacingAndGlyphs" textLength="156" x="423" y="129.4043">Origin; Cost; Rating; ABV;</text><rect fill="#FFFFFF" height="50.2656" rx="12.5" ry="12.5" style="stroke: #EEEEEE; stroke-width: 1.5;" width="164" x="38" y="80"/><line style="stroke: #EEEEEE; stroke-width: 1.5;" x1="38" x2="202" y1="106.2969" y2="106.2969"/><text fill="#000000" font-family="Helvetica" font-size="14" lengthAdjust="spacingAndGlyphs" textLength="144" x="48" y="97.9951">Result Display Param</text><text fill="#000000" font-family="sans-serif" font-size="12" lengthAdjust="spacingAndGlyphs" textLength="48" x="43" y="122.4355">Display;</text><rect fill="#FFFFFF" height="78.2031" rx="12.5" ry="12.5" style="stroke: #EEEEEE; stroke-width: 1.5;" width="156" x="498" y="214"/><line style="stroke: #EEEEEE; stroke-width: 1.5;" x1="498" x2="654" y1="240.2969" y2="240.2969"/><text fill="#000000" font-family="Helvetica" font-size="14" lengthAdjust="spacingAndGlyphs" textLength="69" x="541.5" y="231.9951">Filter Data</text><text fill="#000000" font-family="sans-serif" font-size="12" lengthAdjust="spacingAndGlyphs" textLength="136" x="503" y="256.4355">filter whisky database</text><text fill="#000000" font-family="sans-serif" font-size="12" lengthAdjust="spacingAndGlyphs" textLength="63" x="503" y="270.4043">subject to</text><text fill="#000000" font-family="sans-serif" font-size="12" lengthAdjust="spacingAndGlyphs" textLength="124" x="503" y="284.373">data filtering param</text><rect fill="#FFFFFF" height="78.2031" rx="12.5" ry="12.5" style="stroke: #EEEEEE; stroke-width: 1.5;" width="216" x="506" y="369"/><line style="stroke: #EEEEEE; stroke-width: 1.5;" x1="506" x2="722" y1="395.2969" y2="395.2969"/><text fill="#000000" font-family="Helvetica" font-size="14" lengthAdjust="spacingAndGlyphs" textLength="147" x="540.5" y="386.9951">Generate User Profile</text><text fill="#000000" font-family="sans-serif" font-size="12" lengthAdjust="spacingAndGlyphs" textLength="196" x="511" y="411.4355">generate user profile based on</text><text fill="#000000" font-family="sans-serif" font-size="12" lengthAdjust="spacingAndGlyphs" textLength="191" x="511" y="425.4043">experience profile, user profile</text><text fill="#000000" font-family="sans-serif" font-size="12" lengthAdjust="spacingAndGlyphs" textLength="162" x="511" y="439.373">and favorite whisky profile</text><rect fill="#FFFFFF" height="78.2031" rx="12.5" ry="12.5" style="stroke: #EEEEEE; stroke-width: 1.5;" width="136" x="280" y="524"/><line style="stroke: #EEEEEE; stroke-width: 1.5;" x1="280" x2="416" y1="550.2969" y2="550.2969"/><text fill="#000000" font-family="Helvetica" font-size="14" lengthAdjust="spacingAndGlyphs" textLength="116" x="290" y="541.9951">Select Top Items</text><text fill="#000000" font-family="sans-serif" font-size="12" lengthAdjust="spacingAndGlyphs" textLength="112" x="285" y="566.4355">select top k items</text><text fill="#000000" font-family="sans-serif" font-size="12" lengthAdjust="spacingAndGlyphs" textLength="115" x="285" y="580.4043">using filtered data</text><text fill="#000000" font-family="sans-serif" font-size="12" lengthAdjust="spacingAndGlyphs" textLength="99" x="285" y="594.373">and user profile</text><rect fill="#FFFFFF" height="92.1719" rx="12.5" ry="12.5" style="stroke: #EEEEEE; stroke-width: 1.5;" width="236" x="109" y="679"/><line style="stroke: #EEEEEE; stroke-width: 1.5;" x1="109" x2="345" y1="705.2969" y2="705.2969"/><text fill="#000000" font-family="Helvetica" font-size="14" lengthAdjust="spacingAndGlyphs" textLength="182" x="136" y="696.9951">Calculate Matching Scores</text><text fill="#000000" font-family="sans-serif" font-size="12" lengthAdjust="spacingAndGlyphs" textLength="165" x="114" y="721.4355">calculate matching scores</text><text fill="#000000" font-family="sans-serif" font-size="12" lengthAdjust="spacingAndGlyphs" textLength="181" x="114" y="735.4043">for top k items using weights</text><text fill="#000000" font-family="sans-serif" font-size="12" lengthAdjust="spacingAndGlyphs" textLength="216" x="114" y="749.373">of correlation, rating and diversity,</text><text fill="#000000" font-family="sans-serif" font-size="12" lengthAdjust="spacingAndGlyphs" textLength="203" x="114" y="763.3418">return items with highest scores</text><rect fill="#FFFFFF" height="78.2031" rx="12.5" ry="12.5" style="stroke: #EEEEEE; stroke-width: 1.5;" width="215" x="119.5" y="848"/><line style="stroke: #EEEEEE; stroke-width: 1.5;" x1="119.5" x2="334.5" y1="874.2969" y2="874.2969"/><text fill="#000000" font-family="Helvetica" font-size="14" lengthAdjust="spacingAndGlyphs" textLength="150" x="152" y="865.9951">Present Whisky Cards</text><text fill="#000000" font-family="sans-serif" font-size="12" lengthAdjust="spacingAndGlyphs" textLength="172" x="124.5" y="890.4355">only display certain number</text><text fill="#000000" font-family="sans-serif" font-size="12" lengthAdjust="spacingAndGlyphs" textLength="195" x="124.5" y="904.4043">of recommendations according</text><text fill="#000000" font-family="sans-serif" font-size="12" lengthAdjust="spacingAndGlyphs" textLength="144" x="124.5" y="918.373">to result display param</text><!--link Whisky to FilterData--><path d="M702.072,144.36 C678.214,164.73 648.869,189.784 624.496,210.594 " fill="none" id="Whisky-FilterData" style="stroke: #3C8DBC; stroke-width: 1.0;"/><polygon fill="#3C8DBC" points="620.628,213.896,630.0698,211.0937,624.4304,210.6492,624.8749,205.0099,620.628,213.896" style="stroke: #3C8DBC; stroke-width: 1.0;"/><!--link ExperienceProfile to GenerateUserProfile--><path d="M940.456,137.028 C897.791,184.051 811.869,274.682 728,339 C715.678,348.45 701.944,357.636 688.396,366.043 " fill="none" id="ExperienceProfile-GenerateUserProfile" style="stroke: #3C8DBC; stroke-width: 1.0;"/><polygon fill="#3C8DBC" points="683.811,368.863,693.5728,367.5562,688.0702,366.244,689.3824,360.7415,683.811,368.863" style="stroke: #3C8DBC; stroke-width: 1.0;"/><!--link FilterData to GenerateUserProfile--><path d="M585.491,292.214 C590.886,313.938 597.66,341.211 603.251,363.722 " fill="none" id="FilterData-GenerateUserProfile" style="stroke: #3C8DBC; stroke-width: 1.0;"/><polygon fill="#3C8DBC" points="604.498,368.743,606.2119,359.0444,603.2934,363.8903,598.4475,360.9718,604.498,368.743" style="stroke: #3C8DBC; stroke-width: 1.0;"/><text fill="#000000" font-family="sans-serif" font-size="13" lengthAdjust="spacingAndGlyphs" textLength="122" x="597" y="335.0669">filtered whisky data</text><!--link FilterData to SelectTopItems--><path d="M497.994,275.888 C451.374,293.245 395.457,322.495 365,369 C335.781,413.616 336.234,477 340.813,518.79 " fill="none" id="FilterData-SelectTopItems" style="stroke: #3C8DBC; stroke-width: 1.0;"/><polygon fill="#3C8DBC" points="341.391,523.777,344.3309,514.3771,340.8167,518.8101,336.3838,515.296,341.391,523.777" style="stroke: #3C8DBC; stroke-width: 1.0;"/><text fill="#000000" font-family="sans-serif" font-size="13" lengthAdjust="spacingAndGlyphs" textLength="122" x="366" y="412.5669">filtered whisky data</text><!--link GenerateUserProfile to SelectTopItems--><path d="M547.905,447.017 C508.564,469.645 458.663,498.348 418.559,521.415 " fill="none" id="GenerateUserProfile-SelectTopItems" style="stroke: #3C8DBC; stroke-width: 1.0;"/><polygon fill="#3C8DBC" points="414.216,523.914,424.0119,522.8943,418.5503,521.4212,420.0234,515.9595,414.216,523.914" style="stroke: #3C8DBC; stroke-width: 1.0;"/><text fill="#000000" font-family="sans-serif" font-size="13" lengthAdjust="spacingAndGlyphs" textLength="71" x="489" y="490.0669">user profile</text><!--link SelectTopItems to CalculateMatchingScores--><path d="M319.017,602.324 C302.561,624.085 281.787,651.554 264.144,674.884 " fill="none" id="SelectTopItems-CalculateMatchingScores" style="stroke: #3C8DBC; stroke-width: 1.0;"/><polygon fill="#3C8DBC" points="261.115,678.89,269.7336,674.1235,264.1305,674.9017,263.3523,669.2986,261.115,678.89" style="stroke: #3C8DBC; stroke-width: 1.0;"/><text fill="#000000" font-family="sans-serif" font-size="13" lengthAdjust="spacingAndGlyphs" textLength="72" x="296" y="645.0669">top k items</text><!--link CalculateMatchingScores to PresentWhiskyCards--><path d="M227,771.422 C227,793.745 227,820.517 227,842.5672 " fill="none" id="CalculateMatchingScores-PresentWhiskyCards" style="stroke: #3C8DBC; stroke-width: 1.0;"/><polygon fill="#3C8DBC" points="227,847.7745,231,838.7745,227,842.7745,223,838.7745,227,847.7745" style="stroke: #3C8DBC; stroke-width: 1.0;"/><text fill="#000000" font-family="sans-serif" font-size="13" lengthAdjust="spacingAndGlyphs" textLength="150" x="228" y="814.0669">recommended whiskies</text><!--link DataFilteringParam to FilterData--><path d="M521.017,137.321 C531.11,158.372 544.538,186.379 555.597,209.445 " fill="none" id="DataFilteringParam-FilterData" style="stroke: #3C8DBC; stroke-width: 1.0;"/><polygon fill="#3C8DBC" points="557.775,213.989,557.4887,204.1443,555.6124,209.4809,550.2758,207.6045,557.775,213.989" style="stroke: #3C8DBC; stroke-width: 1.0;"/><!--link UserProfileParam to GenerateUserProfile--><path d="M349.045,151.312 C382.843,189.831 433.614,246.036 481,292 C507.205,317.419 537.955,344.188 563.282,365.497 " fill="none" id="UserProfileParam-GenerateUserProfile" style="stroke: #3C8DBC; stroke-width: 1.0;"/><polygon fill="#3C8DBC" points="567.299,368.869,562.9784,360.0184,563.4697,365.6539,557.8343,366.1452,567.299,368.869" style="stroke: #3C8DBC; stroke-width: 1.0;"/><!--link UserProfileParam to CalculateMatchingScores--><path d="M268.5,151.009 C247.75,178.179 227,214.679 227,252 C227,252 227,252 227,564 C227,600.631 227,641.979 227,673.465 " fill="none" id="UserProfileParam-CalculateMatchingScores" style="stroke: #3C8DBC; stroke-width: 1.0;"/><polygon fill="#3C8DBC" points="227,678.827,231,669.827,227,673.827,223,669.827,227,678.827" style="stroke: #3C8DBC; stroke-width: 1.0;"/><text fill="#000000" font-family="sans-serif" font-size="13" lengthAdjust="spacingAndGlyphs" textLength="48" x="228" y="412.5669">weights</text><!--link ResultDisplayParam to CalculateMatchingScores--><path d="M122.68,130.248 C125.642,159.188 130,209.063 130,252 C130,252 130,252 130,564 C130,605.503 154.161,645.432 178.366,675.02 " fill="none" id="ResultDisplayParam-CalculateMatchingScores" style="stroke: #3C8DBC; stroke-width: 1.0;"/><polygon fill="#3C8DBC" points="181.624,678.943,178.9484,669.4645,178.4284,675.0974,172.7955,674.5775,181.624,678.943" style="stroke: #3C8DBC; stroke-width: 1.0;"/><!--
@startuml

hide empty description

skinparam state {
  ArrowColor #3c8dbc
  BackgroundColor transparent
  BorderColor #EEEEEE
  FontName Helvetica
}
skinparam shadowing false

state Database {
  state Whisky: database containing
  Whisky: whisky flavors and other
  Whisky: columns like name and cost
  state "Experience Profile" as ExperienceProfile: typical flavor profiles on
  ExperienceProfile: various experience levels
}

state "User Input" as UserInput {
  state "User Profile Param" as UserProfileParam
  state "Data Filtering Param" as DataFilteringParam
  state "Result Display Param" as ResultDisplayParam
  UserProfileParam: Mood;
  UserProfileParam: Experience Level;
  UserProfileParam: Preferred Flavor;
  UserProfileParam: Favorite Whisky;
  DataFilteringParam: Spirit Type; Distillery
  DataFilteringParam: Origin; Cost; Rating; ABV;
  ResultDisplayParam: Display;

}

state "Filter Data" as FilterData: filter whisky database
FilterData: subject to
FilterData: data filtering param

state "Generate User Profile" as GenerateUserProfile: generate user profile based on
GenerateUserProfile: experience profile, user profile 
GenerateUserProfile: and favorite whisky profile

state "Select Top Items" as SelectTopItems: select top k items
SelectTopItems: using filtered data
SelectTopItems: and user profile

state "Calculate Matching Scores" as CalculateMatchingScores: calculate matching scores
CalculateMatchingScores: for top k items using weights
CalculateMatchingScores: of correlation, rating and diversity,
CalculateMatchingScores: return items with highest scores

state "Present Whisky Cards" as PresentWhiskyCards: only display certain number
PresentWhiskyCards: of recommendations according
PresentWhiskyCards: to result display param

Whisky - -> FilterData
ExperienceProfile - -> GenerateUserProfile

FilterData - -> GenerateUserProfile: filtered whisky data
FilterData - -> SelectTopItems: filtered whisky data
GenerateUserProfile - -> SelectTopItems: user profile
SelectTopItems - -> CalculateMatchingScores: top k items
CalculateMatchingScores - -> PresentWhiskyCards: recommended whiskies

DataFilteringParam - -> FilterData
UserProfileParam - -> GenerateUserProfile
UserProfileParam - -> CalculateMatchingScores: weights 
ResultDisplayParam - -> CalculateMatchingScores

@enduml

PlantUML version 1.2018.12(Sun Oct 21 06:15:15 EDT 2018)
(GPL source distribution)
Java Runtime: OpenJDK Runtime Environment
JVM: OpenJDK 64-Bit Server VM
Java Version: 1.8.0_181-8u181-b13-0ubuntu0.16.04.1-b13
Operating System: Linux
OS Version: 4.15.0-36-generic
Default Encoding: UTF-8
Language: en
Country: US
--></g></svg>